<svg xmlns="http://www.w3.org/2000/svg" viewBox="0 0 1600 960" role="img" aria-label="MeetPeople recommendation system preview">
  <rect width="1600" height="960" fill="#efe8df" />
  <rect x="76" y="76" width="1448" height="808" rx="38" fill="#ffffff" />
  <rect x="130" y="130" width="310" height="700" rx="28" fill="#1b2430" />
  <rect x="490" y="130" width="520" height="164" rx="24" fill="#d8efe9" />
  <rect x="1048" y="130" width="344" height="164" rx="24" fill="#f1dfc8" />
  <rect x="490" y="338" width="902" height="492" rx="28" fill="#fbfaf7" stroke="#d9d0c5" />
  <circle cx="580" cy="430" r="22" fill="#0f766e" />
  <circle cx="580" cy="536" r="22" fill="#1b2430" />
  <circle cx="580" cy="642" r="22" fill="#c78e3a" />
  <path d="M640 430h250" stroke="#1b2430" stroke-width="18" stroke-linecap="round" />
  <path d="M640 536h390" stroke="#1b2430" stroke-width="18" stroke-linecap="round" />
  <path d="M640 642h310" stroke="#1b2430" stroke-width="18" stroke-linecap="round" />
  <path d="M980 706c42-98 110-145 206-194s124-118 154-226" fill="none" stroke="#0f766e" stroke-linecap="round" stroke-width="18" />
  <path d="M990 720c78 18 145 25 208 19" fill="none" stroke="#c78e3a" stroke-linecap="round" stroke-width="14" />
</svg>

